<svg id="Layer_1" data-name="Layer 1" xmlns="http://www.w3.org/2000/svg" xmlns:xlink="http://www.w3.org/1999/xlink" viewBox="0 0 2400 2300"><defs><clipPath id="clip-path"><rect x="106.3" y="92" width="2187.4" height="2101.94" fill="none"/></clipPath></defs><g clip-path="url(#clip-path)"><path d="M2204.9,2050.1c-3.8,1-6.6,2.3-8.4,4a15.3,15.3,0,0,0-3.8,6.9c-7.5,29.3-14.3,52.4-20.4,69.1s-13.3,29.9-21.6,39.3-18.7,14.2-30.8,14.2c-17.7,0-26.5-10.1-26.5-30.2,0-10.9,1.9-24.1,5.6-39.5s10.7-35.3,20.9-59.6l-1.6-1.6c-12.2,0-23.5.1-33.9.4s-17.9.7-22.4,1.2c-6.6.6-11.3,1.6-14.1,3.1a11,11,0,0,0-5.7,7.7l1.6,1.6q23.7-3.4,62.3-3.9l-.5.5a322,322,0,0,0-16.8,49.9c-4,16.3-6,30-6,40.9,0,12.6,2.9,22.4,8.6,29.4s14.2,10.5,25.3,10.5c15.8,0,28.6-4.7,38.3-14.1s17.7-22,23.8-37.8,13.5-39.6,22.4-71.4l5.3-18.9Zm-254.2,97.5c-4.8.7-8.5,3.4-11.2,8.3a33.2,33.2,0,0,0-4,16.2c0,14.6,7.7,21.9,23,21.9,9.9,0,17.9-3.2,24.2-9.6s10.9-14.7,13.9-24.9a118.9,118.9,0,0,0,4.3-32.6,11.3,11.3,0,0,0-1.6-6.1,8.8,8.8,0,0,0-4.8-3.8l-2.3,1.6c0,17.7-2.7,33.3-8,46.8s-13.5,20.3-24.7,20.3c-4.3,0-7.6-1.4-9.8-4.1s-3.4-6.5-3.4-11.6,1.9-13.1,5.6-21Zm-90.8-50.4c-9.8,0-17.8-1.4-23.8-4.2s-8.9-8-8.9-15.7c0-5.8,2.7-10.1,8.3-12.8a44.6,44.6,0,0,1,19.3-4c11.4,0,21.1,2,29.1,5.9a44.3,44.3,0,0,1,18.6,16.7,78.1,78.1,0,0,1-18.5,9.8,67.1,67.1,0,0,1-24.1,4.3m-2.3-47.5q-17.5,0-28.8,7.2c-7.6,4.9-11.3,12.6-11.3,23.2s3.2,16.8,9.7,21.4,15.1,7,26,7c12.6,0,23.2-1.9,31.9-5.7a91.1,91.1,0,0,0,21.1-12.3,68.1,68.1,0,0,1,3.9,23.7c0,13.7-3.1,25.6-9.4,35.7s-15.7,18-28,23.6-27.5,8.3-45.3,8.3c-9.1,0-16.5-1.3-22.4-3.7l-2,1.1a9.6,9.6,0,0,0-.5,2.8c0,3.7,2.1,6.6,6.5,8.7s10.2,3.3,17.7,3.3c20.4,0,37.6-3.6,51.6-10.6s24.5-16.9,31.6-29.5,10.6-27.2,10.6-43.6c0-12-2.5-22.5-7.6-31.7a53.5,53.5,0,0,0-21.9-21.3c-9.5-5.1-20.7-7.6-33.4-7.6m-109,33.2c-11.7,0-20.8,2.9-27.2,8.8a51.9,51.9,0,0,0-14.3,23.1c-3.1,9.4-6.7,23.9-10.9,43.4l1.7,1.7,2.7-1.4a20.2,20.2,0,0,0,4.2-3.3c1.4-1.3,2.3-3.6,3-6.6,3-14.9,6.1-26.4,9.2-34.4s6.8-13.7,11.2-17.3,10.1-5.3,17.1-5.3,11.6,1.7,14.6,5,4.3,8.1,4.3,14.4c0,8.1-2.8,23.9-8.5,47.2l1.4,1.7a14.3,14.3,0,0,0,10.1-10.2,171.5,171.5,0,0,0,4.6-20,118.3,118.3,0,0,0,2.1-21q0-12-5.7-18.9c-3.9-4.6-10.4-6.9-19.6-6.9m-54.9-33.2a39.4,39.4,0,0,0-9.9,3.8,22.1,22.1,0,0,0-6.7,6.3q-7.6,9.9-18.3,25.5c-7.2,10.4-16.3,23.8-27.3,40.4l-38.7,57a371.3,371.3,0,0,1-10.2-87.1,303.6,303.6,0,0,1,3-44.3l-1.6-1.6c-3.5,1.1-6.1,2.7-7.7,5.1s-2.8,6.1-3.4,11.4a239.1,239.1,0,0,0-.9,24.5,334.9,334.9,0,0,0,4.3,53.6,381.3,381.3,0,0,0,10.5,48.3h9.9q31.5-45.6,74.6-107l24-34.3ZM1300.5,2194q23.7,0,38.4-14.1t23.7-37.8q9.2-23.7,22.5-71.4l5.3-18.9-1.6-1.7a23.5,23.5,0,0,0-8.2,3.6c-1.8,1.5-3.1,3.9-4,7.3q-11.5,44.3-20.6,69.2c-6,16.7-13.1,29.8-21.5,39.2s-18.6,14.2-30.8,14.2c-8.7,0-15.2-2.3-19.5-6.8s-6.3-11.3-6.3-20.4c0-11.8,2.1-26,6.2-42.6s11.4-37.3,21.7-62l-1.4-1.7c-5.7.7-10,4.3-12.9,10.9a363.1,363.1,0,0,0-17.9,53.3c-4.2,17.3-6.3,31.7-6.3,43s2.8,20.5,8.3,27,13.8,9.7,24.9,9.7m-113-32.8c16,0,28.7-3.7,38.1-11.3s14-18.5,14-32.9c0-11.5-3.4-19.9-10.3-25s-16.2-7.7-27.7-7.7q-9.9,0-13.5,2.7a10,10,0,0,0-4,6.9l.9.5a71.9,71.9,0,0,1,14.8-1.6c10,0,17.6,2,22.8,6.1s7.8,10.6,7.8,19.7c0,11.5-3.6,20.1-10.8,25.7s-17.5,8.4-30.7,8.4a51.2,51.2,0,0,1-14-2.1l-1,.7a13,13,0,0,0-.4,2.8c0,4.8,4.7,7.1,14,7.1m-83.6-111.5c-12.6,0-23.9,2.7-33.8,8.2a57.7,57.7,0,0,0-23,22.4,63.1,63.1,0,0,0-8.2,32.1c0,9.8,2.7,17.7,8,23.7s13.6,9,24.7,9c13.4,0,23.9-3.5,31.7-10.5s11.6-16.1,11.6-27.3c0-4.4-1-7.9-3-10.4s-4.9-3.7-8.7-3.9l-1.6,1.6a20.8,20.8,0,0,1,2.1,9.5c0,8.7-2.7,16.1-8,22.1s-12.2,9-20.6,9-15.5-2.3-19.6-6.9-6.2-11-6.2-19.2a49.3,49.3,0,0,1,6.4-25.3,43.4,43.4,0,0,1,18.7-17.2c8.1-4,17.6-6.1,28.6-6.1,13.5,0,23.1,3.9,28.9,11.8s8.6,17.9,8.6,30.4c0,15.2-3,29-9,41.3a68.5,68.5,0,0,1-26.6,29.1c-11.7,7.2-25.9,10.7-42.5,10.7s-27.1-3.8-35.5-11.4-14.4-15.2-18-22.7l5.8-21.7q10.8-41.2,21.9-76.2l-1.6-1.7c-5.1,1.3-8.6,4-10.4,8.3s-7.2,22.9-15.5,54.9l-3.6,13.8q-9.3,34.7-18.9,64.8l1.6,1.6c3.7-.9,6.8-3.5,9.4-7.8s4.4-11.1,8.1-24c4,8,10.4,15.4,19.4,22.1s21,10.2,36.4,10.2q27.9,0,48-12.5a80.6,80.6,0,0,0,30.7-33.7c7-14.3,10.5-30.1,10.5-47.6q0-22.6-11.1-36.6c-7.4-9.3-19.3-13.9-35.7-13.9M825.7,2183.4c-8.8,0-14.9-2.3-18.5-6.7s-5.3-10.5-5.3-18.2c0-9.4,2-21.6,5.9-36.7s9.8-33.5,17.6-55.5c12-3.2,30.5-4.9,55.4-4.9l24.4.3q-12.5,43.4-22.7,68.7t-23.9,39.1a44.1,44.1,0,0,1-32.9,13.9m156.5-116.9c-1.2-4.1-3.1-7.1-5.4-8.9s-6.4-3-11.9-3.8c-13.8-1.8-39.9-2.7-78.1-2.7-44.5,0-67.8,3.1-70.1,9.4a577.6,577.6,0,0,0-18.7,57.2c-4.4,17-6.7,30.5-6.7,40.3q0,36,32.1,36c16,0,29.4-5.2,40.3-15.6s20.2-24.7,27.9-43,15.9-42.7,24.7-73.3c16.4.5,30.1,1.3,41,2.4s18.7,2.4,23.3,3.6Zm-435.6,61.1c0,15.8-2.5,29.1-7.3,39.7s-11.9,16.1-21.1,16.1c-5.5,0-9.8-1.9-12.8-5.6s-4.5-9-4.5-16.1q0-18.9,9.9-40.8a131.3,131.3,0,0,1,25.4-37.8c3.2,5.2,5.7,12,7.6,20.3a114.6,114.6,0,0,1,2.8,24.2m36.6-77.9c-15.4,0-30.2,6-44.6,18.1s-26,27.1-34.9,45.2-13.4,35.3-13.4,51.9c0,9.4,2.2,16.6,6.5,21.6s10,7.5,17,7.5c15.2,0,26.5-6.1,33.7-18.1s10.8-27.1,10.8-45.1a104.5,104.5,0,0,0-4-28.9,79,79,0,0,0-11.7-24.8h-.2c12.8-10.9,25.1-16.4,37.1-16.4q13.3,0,18.6,7.8c3.4,5.1,5.2,13,5.2,23.6q0,31.3-23.8,100.3l1.6,1.6q9.3-3,12-11.1a395.9,395.9,0,0,0,15.7-54.4c3.4-16.6,5.1-29,5.1-37.1,0-13.2-2.5-23.5-7.4-30.8s-12.7-10.9-23.3-10.9m-150,129.5a293.6,293.6,0,0,1-39-26.3c-13.1-10.2-23.4-19.9-30.9-29,6.9-7.5,16.3-15.2,28-23a311.1,311.1,0,0,1,36.7-21.1,238.3,238.3,0,0,1,33.5-14q-16.7,57.1-28.3,113.4m-80.3-54.6c2.2,4.8,8.7,12.3,19.6,22.6a311.5,311.5,0,0,0,35.8,28.9c12.9,9,23.6,14.5,32.2,16.5q15.9-76,36-142.7c-7.4,1.1-19,5.2-34.8,12.5a388.6,388.6,0,0,0-48.3,26.5q-24.6,15.6-39.3,31.1Zm-10.6-73.3a15.4,15.4,0,0,0-7.3,3.3c-1.9,1.7-3.9,4.8-6,9.6a103.4,103.4,0,0,0-5.3,14.9c-1.6,5.4-3.7,13.8-6.5,25l-5.5,22.6,1.4,1.6a21,21,0,0,0,6-3q2.3-1.8,3.9-7.2l1.4-4.8c.6-2.2,2.9-9.9,6.9-23.2s8.2-25.7,12.7-37.2Zm-31.8,0a14.8,14.8,0,0,0-7.3,3.2c-2,1.7-4,4.8-6,9.2a124,124,0,0,0-5.5,16.1c-1.7,6.3-4.4,16.7-8.1,31-.8,3.5-2.1,8.8-4,15.9l1.7,1.6a14.5,14.5,0,0,0,5.6-3,15,15,0,0,0,4-6.9c4.7-15.9,8.5-28.6,11.6-38.3s6.3-18.7,9.6-27.2Zm-148.2,133a110,110,0,0,1-17.3-1.2,47.2,47.2,0,0,1-11-2.7q7.4-34.3,18.2-70.6c21,0,37.3,1.2,48.9,3.4s19.5,5.6,23.9,10.2,6.7,10.8,6.7,18.5c0,13.7-6.3,24.1-18.8,31.4s-29.4,11-50.6,11m-6.9-84.4q6.9-21.6,17.8-48.6l-1.7-1.6a8.4,8.4,0,0,0-4.7,1.7,31.5,31.5,0,0,0-4.5,4.5c-3.8,4.6-9.2,17.8-16,39.7s-14.4,50.9-22.7,87.3c-.9,4,2.3,6.8,9.6,8.5s16.4,2.6,27.3,2.6q37.4,0,59.8-14t22.5-40.4c0-9.2-2.6-16.7-7.8-22.4s-14-10-26.7-12.9-30.3-4.4-52.9-4.4" fill="#dc6413"/><path d="M1080.8,1771.6l1,2.3h5l27.9-30.2-.9-2.6h-13.4Zm12.7,25.8a8.5,8.5,0,0,0,2.5,6.4,9.6,9.6,0,0,0,12.5,0,8.1,8.1,0,0,0,2.5-6.4,8.4,8.4,0,0,0-2.5-6.5,9.6,9.6,0,0,0-12.5,0,8.7,8.7,0,0,0-2.5,6.5m-32.5,0a8.5,8.5,0,0,0,2.5,6.4,9.6,9.6,0,0,0,12.5,0,8.1,8.1,0,0,0,2.5-6.4,8.4,8.4,0,0,0-2.5-6.5,9.6,9.6,0,0,0-12.5,0,8.7,8.7,0,0,0-2.5,6.5m26.7,47.2c4.8,0,8.5,1.3,11.2,3.7a12.9,12.9,0,0,1,4.1,9.9c0,6.3-3.9,12.3-11.7,17.8s-22.4,9.7-43.9,12.7c3.4-12.5,8.7-22.9,15.9-31.4s15.4-12.7,24.4-12.7m26.3,11.8q0-9.9-6.9-15c-4.6-3.4-10.3-5.1-17-5.1-10.5,0-20.1,4.1-28.9,12.3a84.8,84.8,0,0,0-20.6,30.4c-5,12.1-7.5,23.8-7.5,35s2.4,19.4,7,25.9,11.5,9.8,20.4,9.8c6.2,0,12.6-1.6,19.4-4.8a60.3,60.3,0,0,0,18.7-14.1l-2.3-6.4c-11.1,10.3-21.8,15.4-32.3,15.4q-19.8,0-19.8-27.9a102.1,102.1,0,0,1,1.6-16.8q36.5-2.5,52.3-13.5t15.9-25.2m-103,69.1a87.7,87.7,0,0,1-11.9,8.9c-4.1,2.5-6.9,3.8-8.6,3.8s-1.6-.9-1.6-2.8a58.8,58.8,0,0,1,1.6-8.7l14.5-57.2a67,67,0,0,0,2.3-16.1q0-17.1-13.8-17.1c-7.4,0-15.3,4-23.8,12s-17.8,20.5-28.1,37.6h-.7l8.8-31.1a46.2,46.2,0,0,0,1.8-10.6c0-2.8-.6-4.8-1.9-6a8.5,8.5,0,0,0-5.9-1.9,30.5,30.5,0,0,0-11.5,2.8,73.7,73.7,0,0,0-13.2,7.4v6.4a73.4,73.4,0,0,1,10.7-5c3.7-1.4,6.4-2.1,8.2-2.1s2.6,1.1,2.6,3.4a24,24,0,0,1-1,6.5l-23,91.3h10.6l11.1-45.9q16.9-26.2,30.3-40.2c8.8-9.3,16-14,21.5-14s7.4,2.7,7.4,8.1c0,3.8-1.1,9.7-3.2,17.5l-14.6,57.2a47.9,47.9,0,0,0-1.6,11.1c0,5.9,2.3,8.9,6.7,8.9s7.6-1.6,12.7-4.8a83,83,0,0,0,15.4-12.9ZM890.2,1794.4a7.5,7.5,0,0,0,2.1,5.7,7.8,7.8,0,0,0,5.8,2.1,10.7,10.7,0,0,0,7.8-3.3,11.6,11.6,0,0,0,3.2-8.2,7.8,7.8,0,0,0-2.1-5.8,7.9,7.9,0,0,0-5.7-2,10.7,10.7,0,0,0-7.9,3.3,11.6,11.6,0,0,0-3.2,8.2m-.9,60.4a41.9,41.9,0,0,0,1.6-10.4c0-2.9-.6-5-2-6.2a8.2,8.2,0,0,0-5.8-1.9,30.9,30.9,0,0,0-11.6,2.8,73.1,73.1,0,0,0-13.1,7.4v6.4a68.8,68.8,0,0,1,10.7-5c3.6-1.4,6.4-2.1,8.2-2.1s2.5,1.1,2.5,3.4a28,28,0,0,1-.9,6.5l-18.4,74a43,43,0,0,0-1.6,11.1c0,5.9,2.2,8.9,6.7,8.9s7.6-1.6,12.6-4.8a86.7,86.7,0,0,0,15.5-12.9l-1.9-6.5a86.9,86.9,0,0,1-11.8,8.9c-4.1,2.5-7,3.8-8.7,3.8s-1.6-.9-1.6-2.8a58.8,58.8,0,0,1,1.6-8.7Zm-43.3-8.3,2.3-9.2L825,1848.6l14-56.5a57.2,57.2,0,0,0,1.7-10.2c0-3-.8-5.2-2.2-6.4a10.8,10.8,0,0,0-6.8-1.9c-7.4,0-15.2,3.4-23.5,10.2v6.4a83.3,83.3,0,0,1,10.2-5.3,23.4,23.4,0,0,1,7.7-2c2.3,0,3.5,1.3,3.5,4.1a24.3,24.3,0,0,1-.9,6l-15.2,60.9-22.9,11-2.3,9.2,22.9-11-16.6,66.6a43.5,43.5,0,0,0-1.7,11.1c0,5.9,2.3,8.9,6.7,8.9s7.6-1.6,12.7-4.8a86.7,86.7,0,0,0,15.5-12.9l-1.9-6.5a81.9,81.9,0,0,1-11.9,8.9c-4,2.5-6.9,3.8-8.6,3.8s-1.6-.9-1.6-2.8a58.8,58.8,0,0,1,1.6-8.7l17.3-68.9Zm-82.1,79a81.9,81.9,0,0,1-11.9,8.9c-4,2.5-6.9,3.8-8.6,3.8s-1.6-.9-1.6-2.8a58.8,58.8,0,0,1,1.6-8.7l21.9-87.6H754.7l-10.8,45.4q-35.5,54.6-51.9,54.6c-4.9,0-7.4-2.6-7.4-8,0-3.9,1.1-9.7,3.2-17.5l15-58.8a37.5,37.5,0,0,0,1.6-10.2c0-5.5-2.6-8.3-7.8-8.3a30.5,30.5,0,0,0-11.5,2.8,73.7,73.7,0,0,0-13.2,7.4v6.4a69.8,69.8,0,0,1,10.8-5q5.4-2.1,8.1-2.1c1.7,0,2.6,1.1,2.6,3.4a28,28,0,0,1-.9,6.5L677,1916.5a67.8,67.8,0,0,0-2.3,16.2c0,11.4,4.6,17,13.8,17,7.4,0,15.3-4,23.8-12.1s17.8-20.7,28.1-37.9h.7l-8.5,30a42.7,42.7,0,0,0-1.9,11.1c0,5.6,2.1,8.6,6.2,8.9-8.1,5.1-14.2,10.2-18.3,15.4a26.1,26.1,0,0,0-6.1,16.7q0,8.7,5.7,12.9c3.7,2.8,8.4,4.1,14.1,4.1a63.3,63.3,0,0,0,14.1-1.8l1.8-7.4a35.7,35.7,0,0,1-8,.9c-10.3,0-15.5-4.1-15.5-12.4,0-5.9,2.4-11.5,7.1-16.8s11-10.9,19-16.6a81.9,81.9,0,0,0,7.6-5.8c3-2.6,5.5-4.9,7.4-6.9Zm-162.7,24.2a44.2,44.2,0,0,0,19.5-4.3,37,37,0,0,0,14-11.8,27.1,27.1,0,0,0,5.2-16.1,24.2,24.2,0,0,0-2-9.5,43.4,43.4,0,0,0-6.5-10.1L615.9,1879c-5-6.2-7.6-11.9-7.6-17.3s1.8-8.8,5.3-11.5,8.6-4.2,15-4.2a31.2,31.2,0,0,1,9.8,1.4,55.6,55.6,0,0,1,8,3.5c2.7,1.3,4.6,2,5.7,2a4.5,4.5,0,0,0,3.4-1.6,5.3,5.3,0,0,0,1.5-3.7c0-3-2.2-5.7-6.5-7.9a33.3,33.3,0,0,0-15.4-3.4,40.1,40.1,0,0,0-17.8,4.1,35.1,35.1,0,0,0-13.2,10.7,23.1,23.1,0,0,0-5,14c0,6.5,2.8,13.4,8.5,20.8l15,18.9a54.8,54.8,0,0,1,6.1,9,15.6,15.6,0,0,1,1.8,7.4c0,5.6-1.9,10.2-5.7,13.6s-9.3,5-16.7,5a37.3,37.3,0,0,1-9.6-1.1,67.7,67.7,0,0,1-7.7-3c-2.8-1.4-4.8-2.1-6.2-2.1a5.4,5.4,0,0,0-4.3,1.6,5.6,5.6,0,0,0-1.5,3.9c0,3,2.2,5.5,6.5,7.5s9.6,3.1,15.9,3.1m-47.3-152.3a8.2,8.2,0,0,0,2.6,6.4,8.5,8.5,0,0,0,6.2,2.3,8.7,8.7,0,0,0,6.2-2.3,8.1,8.1,0,0,0,2.5-6.4,8.4,8.4,0,0,0-2.5-6.5,9.1,9.1,0,0,0-6.2-2.3,9,9,0,0,0-6.2,2.3,8.4,8.4,0,0,0-2.6,6.5m-32.5,0a8.2,8.2,0,0,0,2.6,6.4,8.5,8.5,0,0,0,6.2,2.3,8.7,8.7,0,0,0,6.2-2.3,8.2,8.2,0,0,0,2.6-6.4,8.4,8.4,0,0,0-2.6-6.5,9.1,9.1,0,0,0-6.2-2.3,9,9,0,0,0-6.2,2.3,8.4,8.4,0,0,0-2.6,6.5m26.8,47.2c4.7,0,8.5,1.3,11.1,3.7a12.9,12.9,0,0,1,4.1,9.9c0,6.3-3.9,12.3-11.7,17.8s-22.4,9.7-43.9,12.7c3.4-12.5,8.7-22.9,15.9-31.4s15.4-12.7,24.5-12.7m26.2,11.8q0-9.9-6.9-15c-4.6-3.4-10.3-5.1-17-5.1q-15.7,0-28.8,12.3A83.7,83.7,0,0,0,501,1879c-5,12.1-7.5,23.8-7.5,35s2.4,19.4,7.1,25.9,11.5,9.8,20.4,9.8a45,45,0,0,0,19.3-4.8,60.3,60.3,0,0,0,18.7-14.1l-2.3-6.4c-11.1,10.3-21.8,15.4-32.3,15.4q-19.8,0-19.8-27.9a102.1,102.1,0,0,1,1.6-16.8q36.4-2.5,52.3-13.5t15.9-25.2m-103,69.1a81.9,81.9,0,0,1-11.9,8.9c-4,2.5-6.9,3.8-8.6,3.8s-1.6-.9-1.6-2.8a58.8,58.8,0,0,1,1.6-8.7l14.5-57.2a62.3,62.3,0,0,0,2.3-16.1q0-17.1-13.8-17.1-11.1,0-23.7,12T402,1885.9h-.7l8.8-31.1a46.2,46.2,0,0,0,1.8-10.6c0-2.8-.6-4.8-1.9-6a8.5,8.5,0,0,0-5.9-1.9,30.5,30.5,0,0,0-11.5,2.8,73.7,73.7,0,0,0-13.2,7.4v6.4a74.4,74.4,0,0,1,10.8-5q5.4-2.1,8.1-2.1c1.7,0,2.6,1.1,2.6,3.4a28,28,0,0,1-.9,6.5L376.9,1947h10.6l11.1-45.9c11.3-17.5,21.5-30.9,30.3-40.2s16-14,21.5-14,7.4,2.7,7.4,8.1c0,3.8-1.1,9.7-3.2,17.5l-14.5,57.2a43,43,0,0,0-1.6,11.1c0,5.9,2.2,8.9,6.6,8.9s7.6-1.6,12.7-4.8a86.7,86.7,0,0,0,15.5-12.9ZM341.2,1797.4a8.1,8.1,0,0,0,2.5,6.4,9.6,9.6,0,0,0,12.5,0,8.1,8.1,0,0,0,2.5-6.4,8.4,8.4,0,0,0-2.5-6.5,9.6,9.6,0,0,0-12.5,0,8.4,8.4,0,0,0-2.5,6.5m-32.5,0a8.1,8.1,0,0,0,2.5,6.4,9.6,9.6,0,0,0,12.5,0,8.1,8.1,0,0,0,2.5-6.4,8.4,8.4,0,0,0-2.5-6.5,9.6,9.6,0,0,0-12.5,0,8.4,8.4,0,0,0-2.5,6.5m26.7,47.2c4.8,0,8.5,1.3,11.2,3.7a12.8,12.8,0,0,1,4,9.9c0,6.3-3.8,12.3-11.6,17.8s-22.4,9.7-43.9,12.7c3.4-12.5,8.7-22.9,15.9-31.4s15.4-12.7,24.4-12.7m26.3,11.8q0-9.9-6.9-15t-17.1-5.1q-15.6,0-28.8,12.3a84.8,84.8,0,0,0-20.6,30.4c-5,12.1-7.5,23.8-7.5,35s2.3,19.4,7,25.9,11.5,9.8,20.4,9.8c6.2,0,12.6-1.6,19.4-4.8a61.5,61.5,0,0,0,18.7-14.1l-2.3-6.4c-11.1,10.3-21.9,15.4-32.3,15.4q-19.8,0-19.8-27.9a102.1,102.1,0,0,1,1.6-16.8q36.5-2.5,52.3-13.5t15.9-25.2m-217.4,82.3,35.5-142.9h24c17.7,0,30.7,4.2,39,12.5s12.4,20,12.4,34.7-3.3,28.6-9.8,43.5a93.1,93.1,0,0,1-29.6,37.2q-19.8,15-47.9,15Zm122.9-95.2c0-17.7-5.1-31.5-15.4-41.4s-24.9-14.9-43.6-14.9H150.3l-1.3,6.3a113.2,113.2,0,0,1,12.5,1,7.4,7.4,0,0,1,4.5,2.2,5.3,5.3,0,0,1,1.2,3.2,25.1,25.1,0,0,1-1.2,6.5l-30.4,121.4a40.2,40.2,0,0,1-2,6.5,8.3,8.3,0,0,1-3.1,3.5,14.6,14.6,0,0,1-6.6,2.1c-2.8.4-6.8.7-11.8.9l-1.6,6.2h56.9q29.5,0,52.3-15.5a105.7,105.7,0,0,0,35.2-39.4q12.3-24,12.3-48.6" fill="#522651"/><path d="M2291.8,1491.3a42.9,42.9,0,0,0-19.3,3.6c-5.7,2.5-10.6,7.5-14.8,14.8a101.7,101.7,0,0,0-6.3,13.4c-2.2,5.5-4.5,11.5-6.8,17.8-3.1,8.9-7.3,19.9-12.7,33.1l1.9,2.3c7.2-.6,12.9-2.3,17-5a31.1,31.1,0,0,0,10.2-12l11.5-23.8c.7-1.6,3.2-6.9,7.5-15.7s8.8-17.7,13.7-26.4ZM2134.6,1581q11.4-75.4,37.6-75.4a11.2,11.2,0,0,1,10.3,5.7q3.3,5.9,3.3,16.2a70.7,70.7,0,0,1-4.9,25.8,44,44,0,0,1-16.5,20.7c-7.7,5.4-17.6,7.7-29.8,7m41.8-91.3c-19.9,0-35.3,7.8-46.4,23.5a140.9,140.9,0,0,0-22.6,50.4c-4,17.9-5.9,31.5-5.9,40.9,0,7.7,1.7,13.8,5.1,18.5s9.9,8.5,19.3,11.4l3.9-2.7c.9-13.9,1.9-26.1,3-36.7a86.2,86.2,0,0,0,18.2,2.1c13.1,0,24.4-3.2,34-9.5a61.4,61.4,0,0,0,21.9-24.7,74.2,74.2,0,0,0,7.5-32.9q0-40.4-38-40.3M2037.8,1604q-1.8-37.8-12.9-81.6-36.9,43.3-55.7,81.6Zm-103,27q3.9-21.9,28.5-59.7t65.1-80.9h17.7a470.5,470.5,0,0,1,18,64.5c4.6,22.4,6.9,40.9,6.9,55.3,0,10.3-1.3,17.2-3.9,20.8Zm-39.2-64.6c0,4.2,1.3,7.5,3.7,9.8a13.7,13.7,0,0,0,9.9,3.6,26,26,0,0,0,17-6c4.8-4,7.2-9.4,7.2-16.1,0-4.5-1.3-7.9-4-10.3a14.9,14.9,0,0,0-10.3-3.6,23.4,23.4,0,0,0-16.8,6.5,21.4,21.4,0,0,0-6.7,16.1m-49.5-45.6a85.3,85.3,0,0,1,16.1,1.3,37.6,37.6,0,0,1,10.6,3.1l3.2-1.6c2.8-6.2,4.2-11.8,4.2-16.9,0-11.3-8.4-17-25.1-17q-42.7,0-66.4,22.7t-23.8,64.9c0,19.5,4.9,33.9,14.8,43.2s24.8,13.9,44.9,13.9q18.9,0,28.2-6.9c6.1-4.6,9.5-12.6,10.1-24l-2.3-2.5a154.6,154.6,0,0,1-28.1,2.5c-14.6,0-26.2-2.7-34.6-8.1s-12.7-14.4-12.7-26.7c0-16.4,5.5-28.5,16.6-36.3s25.8-11.6,44.3-11.6m-205.6,98c-5.6,0-9.6-2.2-12-6.4s-3.7-9.5-3.7-16c0-12.9,3.3-23.5,9.8-31.7s15.5-13.4,27.1-15.6a28.1,28.1,0,0,1,4.2,10,59.5,59.5,0,0,1,1.5,14,76,76,0,0,1-3,20.9,45.3,45.3,0,0,1-9.1,17.6,18.6,18.6,0,0,1-14.8,7.2m41.2-95c-25.2,0-45.5,5.7-61.1,17.1s-23.2,28.4-23.2,51.1c0,13.7,3.7,24.1,11,31.3s18,10.7,31.8,10.7a68.1,68.1,0,0,0,29.5-6.3,49.9,49.9,0,0,0,21.2-17.7c5.3-7.7,7.9-16.7,7.9-27a41.8,41.8,0,0,0-5.1-20.7A35,35,0,0,0,1679,1548c12.3.2,23.9.8,35,1.8a261.2,261.2,0,0,1,27.9,4l3.4-1.7a21.4,21.4,0,0,0,.5-5c0-8.6-5.3-14.7-16-18.1s-26.7-5.2-48.1-5.2m-290.6,52.5c12.9,0,23.3-2.9,31.2-8.8s14.2-14.8,18.8-26.5,8.8-27.7,12.7-47.6l-2.3-2.1c-9.7,1.1-16.6,3.1-20.8,6a18.8,18.8,0,0,0-7.8,11.1c-3.2,14.4-6,25.2-8.2,32.2s-4.8,12.1-7.6,15a14.7,14.7,0,0,1-11,4.4c-4,0-6.8-1-8.5-3s-2.5-5-2.5-9c0-8.1,3.6-26.4,10.8-54.6l-2.3-2.1c-9.7.9-16.5,2.8-20.5,5.6a21.1,21.1,0,0,0-8.1,11.2,154.1,154.1,0,0,0-5,21.2,114.3,114.3,0,0,0-2.1,18.9q0,13.8,7.5,21c5,4.8,13.5,7.1,25.7,7.1m-150.8,58.1q29.1,0,46.6-15.1c11.7-10,21-23.4,28.1-40.2s15.6-41.6,25.6-74.7c.5-1.7,1-3.5,1.7-5.5s1.4-4.1,2-6.5l-2.5-2.7c-9.4,1.2-16.6,2.9-21.5,5.1s-8.4,4.7-10.4,7.7a51.3,51.3,0,0,0-5.5,12.3l-4.6,15q-8.5,28.4-15,45.5a110.7,110.7,0,0,1-15.5,28.9c-6.1,7.9-13.1,11.8-21.1,11.8-5.4,0-9.3-1.5-11.7-4.6s-3.5-7.5-3.5-13.2c0-10.4,2.8-25.3,8.6-44.7a637.1,637.1,0,0,1,22-61.1l-2.5-2.7c-10,.9-17.4,2.6-22.1,5.2a31.9,31.9,0,0,0-11.8,10.7c-3.8,6.4-7.8,15.2-11.9,26.4a278.1,278.1,0,0,0-10,34.4c-2.6,11.9-3.9,22.1-3.9,30.7,0,12.7,3.2,22.2,9.8,28.2s16.2,9.1,29.1,9.1m-103.9-58.1c12.9,0,23.3-2.9,31.2-8.8s14.2-14.8,18.8-26.5,8.8-27.7,12.7-47.6l-2.3-2.1c-9.7,1.1-16.6,3.1-20.8,6a18.8,18.8,0,0,0-7.8,11.1c-3.2,14.4-6,25.2-8.2,32.2s-4.8,12.1-7.6,15a14.6,14.6,0,0,1-10.9,4.4c-4,0-6.9-1-8.6-3s-2.5-5-2.5-9c0-8.1,3.6-26.4,10.8-54.6l-2.3-2.1c-9.7.9-16.5,2.8-20.5,5.6a21.1,21.1,0,0,0-8.1,11.2,170.2,170.2,0,0,0-5,21.2,114.3,114.3,0,0,0-2.1,18.9q0,13.8,7.5,21c5,4.8,13.5,7.1,25.7,7.1m-159.7,42.5c-5.6,0-9.6-2.2-12-6.4s-3.7-9.5-3.7-16c0-12.9,3.2-23.5,9.8-31.7s15.5-13.4,27.1-15.6a28.1,28.1,0,0,1,4.2,10,59.5,59.5,0,0,1,1.5,14,76,76,0,0,1-3,20.9,45.3,45.3,0,0,1-9.1,17.6c-4.1,4.8-9,7.2-14.8,7.2m41.2-95c-25.2,0-45.5,5.7-61.1,17.1s-23.2,28.4-23.2,51.1c0,13.7,3.6,24.1,11,31.3s18,10.7,31.8,10.7a68.1,68.1,0,0,0,29.5-6.3,50.5,50.5,0,0,0,21.2-17.7c5.3-7.7,7.9-16.7,7.9-27a41.8,41.8,0,0,0-5.1-20.7,34.7,34.7,0,0,0-14.8-14.3q18.5.3,35.1,1.8a269,269,0,0,1,27.9,4l3.4-1.7a21.4,21.4,0,0,0,.5-5c0-8.6-5.4-14.7-16-18.1s-26.7-5.2-48.1-5.2m-269.4-5.5a243.3,243.3,0,0,1,7.8-24.9l-2.3-2.1c-8.1.1-14,1.6-17.6,4.3s-6.5,7.7-8.7,15.1a98.5,98.5,0,0,0-2.7,10.2c-.7,3-1,5-1.2,5.9l2.3,2.1h33.2c-8.3,5.2-14.2,10.1-17.7,14.6a22.1,22.1,0,0,0-5.3,13.9,17,17,0,0,0,4.8,12.1,22.7,22.7,0,0,0,13.1,6.8l1.6-1.8c.8-10.6,3.4-19.5,7.9-26.6a90.9,90.9,0,0,1,16.1-19.5l2.5-10.1ZM660.4,1604q-1.8-37.8-12.9-81.6-36.9,43.3-55.8,81.6Zm-103,27q3.9-21.9,28.5-59.7t65.1-80.9h17.7a470.5,470.5,0,0,1,18,64.5c4.6,22.4,6.9,40.9,6.9,55.3,0,10.3-1.3,17.2-3.9,20.8Zm-39.2-64.6c0,4.2,1.2,7.5,3.7,9.8s5.8,3.6,9.9,3.6a25.5,25.5,0,0,0,16.9-6c4.9-4,7.3-9.4,7.3-16.1,0-4.5-1.3-7.9-4-10.3a14.9,14.9,0,0,0-10.3-3.6,23.2,23.2,0,0,0-16.8,6.5,21.4,21.4,0,0,0-6.7,16.1m-49.6-45.6a85.7,85.7,0,0,1,16.2,1.3,37.6,37.6,0,0,1,10.6,3.1l3.2-1.6c2.8-6.2,4.2-11.8,4.2-16.9,0-11.3-8.4-17-25.2-17q-42.6,0-66.3,22.7t-23.8,64.9c0,19.5,4.9,33.9,14.8,43.2s24.8,13.9,44.9,13.9c12.6,0,22-2.3,28.1-6.9s9.6-12.6,10.2-24l-2.3-2.5a154.9,154.9,0,0,1-28.2,2.5q-21.9,0-34.5-8.1c-8.5-5.5-12.7-14.4-12.7-26.7,0-16.4,5.5-28.5,16.6-36.3s25.8-11.6,44.2-11.6m-92.1-29.5a111.4,111.4,0,0,0-12.4,2.5,31,31,0,0,0-9.5,5.2,26.6,26.6,0,0,0-7.9,11.2,147.5,147.5,0,0,0-6.5,19.2q-3.1,11.3-8.7,33.3l-2.8,11.3,2.1,2.3c7.7-.9,13.3-2.8,17-5.7a24.4,24.4,0,0,0,7.7-11.3c8-25.7,15.7-47.6,23-65.9Zm-43.8,0a103,103,0,0,0-12.6,2.5,26.7,26.7,0,0,0-17.2,16.6c-1.5,3.6-3,7.7-4.5,12.4s-3.2,11-5.3,19-3.4,13.3-4,15.9-2.3,9.6-4.2,16.3l2.1,2.3c7.9-.9,13.6-2.8,17.2-5.7a22.8,22.8,0,0,0,7.5-11.5c9.7-30.5,17.3-52.4,23-65.7ZM195.1,1608.6a48.8,48.8,0,0,1-8.6-28.3c0-10.8,2.1-20.4,6.4-28.8s10.5-12.7,19-12.7c5.4,0,9.3,2.1,11.9,6.3s3.8,9.6,3.8,16c0,13.1-2.8,23.8-8.2,32.1s-13.6,13.4-24.3,15.4m14.9-84.8a62.6,62.6,0,0,0-28.3,6.3,50.5,50.5,0,0,0-20.1,17.9c-4.9,7.7-7.3,16.6-7.3,26.7a38.4,38.4,0,0,0,5.5,20.7,40.2,40.2,0,0,0,14.5,13.9,246.5,246.5,0,0,1-30.8-2.8c-10.2-1.5-19.1-3.2-26.8-5l-3.5,1.6a33.3,33.3,0,0,0,2.8,17.5c2.5,5.4,6.8,8.8,13.1,10.1a123.3,123.3,0,0,0,18.9,2.6c7.1.4,16.9.7,29.5.7q39.5,0,59.5-17t20.1-46c0-15.2-4.2-26.8-12.4-35s-19.8-12.2-34.7-12.2" fill="#dc6413"/><path d="M2152.9,1297.3l-22.2,89.7h31.6l8.5-35.3c17.8-37.6,34.4-53,42.7-53s5,10.1,2.1,22.1l-12.5,46.6c-2.8,10.6-.7,23,13.8,23,12.5,0,27.2-8.7,41.5-25.8l-3.7-6.2c-8,7.8-13.1,12-17,12s-3.2-2.3-1.9-8.8l13.2-51.1c7.1-29.3,1.4-40.4-15-40.4-19.1,0-36.7,15.2-57.2,54.6h-.9l9.5-38c2.3-9.7-1-16.6-12.3-16.6s-25.3,7.2-40.1,15.9l.7,8.1c6.9-3.2,12.9-5.8,16.4-5.8s4.4,2.8,2.8,9m-62.5,68.2,19.1-78.8c2.3-9.4-.4-16.6-12.7-16.6s-27.4,7.6-41,15.9l.7,8.1c6.2-3,12.9-5.8,16.1-5.8s4.7,2.3,3,9l-16.8,68c-3.9,15.9.7,25.1,13.6,25.1s26.8-8.5,41.3-25.8l-3.9-6.2c-8.3,8.5-13.4,12-17.3,12-1.9,0-3-1.9-2.1-4.9m-1.2-129.3A14.5,14.5,0,0,0,2104,1251c11.1,0,21.2-10.4,21.2-21.2,0-8.6-6.2-15-14.8-15-11,0-21.2,10.4-21.2,21.4m-59.4,33.9c-9,0-15.9,5.3-16.2,16.6-.4,22.1-1.1,47.7-23.7,71.7l-11.8-85.1h-32.9l5.3,33.7c-3.2,16.1-10.8,33.4-26.3,50.2l-9.4-69.3c-1.9-13.4-4.9-17.8-13.9-17.8-17,0-39.6,15-39.6,15l1.1,8.1c5.6-2.8,12.7-6,15.9-6s3.7,1.8,4.2,4.8l15.2,96.8h7.4c19.8-17.5,37.1-36.4,49.8-54.1l8.5,54.1h7.1c40.6-34.1,74.5-76.3,74.5-102.6,0-9.4-4.2-16.1-15.2-16.1M1812,1281.2c6.9,0,10.8,4.1,10.8,13.1,0,16.2-15.9,26.1-40.8,30.7,3.7-22.4,14.1-43.8,30-43.8m28.5,79.7-3.2-6.7c-15,12.3-26.3,17.6-37.1,17.6-15.7,0-19.8-11.1-19.8-27.9a92.2,92.2,0,0,1,.4-10.4c53.1-3.5,75.9-21.2,75.9-40.8,0-14.5-12-22.6-32.5-22.6-46.6,0-76.8,44-76.8,82.1,0,21.9,9.9,38.2,35.3,38.2s46.1-15.2,57.8-29.5m-45.8-107.2.4,2.4h9.5l24.2-23.3,13.8,23.3h12.5l1.3-2.4-14.2-39.1H1829Zm-68.5,16.4c-9,0-15.9,5.3-16.1,16.6-.5,22.1-1.2,47.7-23.8,71.7l-11.7-85.1h-33l5.3,33.7c-3.2,16.1-10.8,33.4-26.3,50.2l-9.4-69.3c-1.8-13.4-4.8-17.8-13.8-17.8-17.1,0-39.7,15-39.7,15l1.2,8.1c5.5-2.8,12.7-6,15.9-6s3.7,1.8,4.1,4.8l15.2,96.8h7.4c19.8-17.5,37.1-36.4,49.8-54.1l8.5,54.1h7.2c40.5-34.1,74.4-76.3,74.4-102.6,0-9.4-4.1-16.1-15.2-16.1m-242.7,120.1c31.8,0,48.9-21.2,48.9-38.5,0-8.3-4.6-15.7-7.9-20.3l-17.5-23.5c-4.8-6.7-7.6-10.8-7.6-15.2s3.5-10.6,10.4-10.6c12.9,0,17.3,18.4,30.2,18.4a12,12,0,0,0,12.4-12.4c0-11.1-13.1-18-30.4-18-28.4,0-50.2,20.1-50.2,40.4a33.4,33.4,0,0,0,5.7,18.4l16.6,23c4.8,6.7,8.8,11.8,8.8,17.6s-4,8.3-9,8.3c-14.5,0-17.5-19.2-30.7-19.2-6.9,0-13.1,4.6-13.1,12.9,0,12.5,15.4,18.7,33.4,18.7m79.5-173.3-.2-2.3h-9.7l-23.3,23.2-14.5-23.2h-12.7l-1.6,2.3,15.5,39.2h13.1Zm-142.2,148.6,19.1-78.8c2.3-9.4-.4-16.6-12.6-16.6s-27.5,7.6-41.1,15.9l.7,8.1c6.3-3,12.9-5.8,16.2-5.8s4.6,2.3,3,9l-16.9,68c-3.9,15.9.7,25.1,13.6,25.1s26.8-8.5,41.3-25.8l-3.9-6.2c-8.3,8.5-13.4,12-17.3,12-1.9,0-3-1.9-2.1-4.9m-1.1-129.3a14.4,14.4,0,0,0,14.7,14.8c11.1,0,21.2-10.4,21.2-21.2,0-8.6-6.2-15-14.7-15-11.1,0-21.2,10.4-21.2,21.4M1278.4,1387l11-41.7c19.6-34.2,34.6-51.2,43.1-51.2,3.7,0,6.3,2.1,6.3,6.7,0,9.2-10,23.7-31.8,41.9v2.3l19.8,42H1356l2.4-6.9-24-45.2c26-15.5,36.9-28.8,36.9-44.3s-11.3-20.5-22.4-20.5c-18.4,0-33.2,13.4-53.9,51.2h-1l23.1-93.1c2.3-9.3-1.4-16.2-12.9-16.2s-27.2,7.4-41,15.9l.6,8.1c7-3,12.7-5.8,16.4-5.8s4.6,2.6,3,9L1247,1387Zm-66.6-21.5,19.1-78.8c2.3-9.4-.5-16.6-12.7-16.6s-27.4,7.6-41,15.9l.7,8.1c6.2-3,12.9-5.8,16.1-5.8s4.6,2.3,3,9l-16.8,68c-3.9,15.9.7,25.1,13.6,25.1s26.7-8.5,41.2-25.8l-3.9-6.2c-8.3,8.5-13.3,12-17.3,12-1.8,0-3-1.9-2-4.9m-1.2-129.3a14.5,14.5,0,0,0,14.8,14.8c11,0,21.2-10.4,21.2-21.2,0-8.6-6.3-15-14.8-15-11.1,0-21.2,10.4-21.2,21.4m-110.2,154c31.8,0,48.9-21.2,48.9-38.5,0-8.3-4.6-15.7-7.8-20.3l-17.6-23.5c-4.8-6.7-7.6-10.8-7.6-15.2s3.5-10.6,10.4-10.6c12.9,0,17.3,18.4,30.2,18.4a12,12,0,0,0,12.4-12.4c0-11.1-13.1-18-30.4-18-28.3,0-50.2,20.1-50.2,40.4a33.4,33.4,0,0,0,5.7,18.4l16.6,23c4.9,6.7,8.8,11.8,8.8,17.6s-3.9,8.3-9,8.3c-14.5,0-17.5-19.2-30.7-19.2-6.9,0-13.1,4.6-13.1,12.9,0,12.5,15.5,18.7,33.4,18.7m79.6-173.3-.3-2.3H1170l-23.2,23.2-14.6-23.2h-12.6l-1.7,2.3,15.5,39.2h13.1Zm-143,148.2,28.6-116c1.6-6,4.2-9.4,8.6-11.3,2.5-.9,7.3-1.3,10.3-1.6l2.3-9H1020l-2.3,9c3.7.5,7.4,1,9.2,1.9,3.5,1.8,4.6,5,3,11l-28.6,116c-1.6,6-4.1,9.4-8.5,11.3-2.5.9-7.2,1.4-10.2,1.6l-2.5,9H1047l2.3-9c-4-.5-7.6-.9-9.5-1.9s-4.4-5-2.8-11m-59.2-48.4H913.7l-5,20.3h64Zm-109.7,48.8,19.1-78.8c2.3-9.4-.4-16.6-12.7-16.6s-27.4,7.6-41,15.9l.7,8.1c6.2-3,12.9-5.8,16.1-5.8s4.7,2.3,3,9l-16.8,68c-3.9,15.9.7,25.1,13.6,25.1s26.8-8.5,41.3-25.8l-3.9-6.2c-8.3,8.5-13.4,12-17.3,12-1.9,0-3-1.9-2.1-4.9m-1.2-129.3a14.5,14.5,0,0,0,14.8,14.8c11.1,0,21.2-10.4,21.2-21.2,0-8.6-6.2-15-14.8-15-11,0-21.2,10.4-21.2,21.4m-59.4,33.9c-9,0-15.9,5.3-16.2,16.6-.4,22.1-1.1,47.7-23.7,71.7l-11.8-85.1H722.9l5.3,33.7c-3.2,16.1-10.8,33.4-26.3,50.2l-9.4-69.3c-1.9-13.4-4.9-17.8-13.9-17.8-17,0-39.6,15-39.6,15l1.1,8.1c5.6-2.8,12.7-6,15.9-6s3.7,1.8,4.2,4.8l15.2,96.8h7.4c19.8-17.5,37.1-36.4,49.8-54.1l8.5,54.1h7.1c40.6-34.1,74.5-76.3,74.5-102.6,0-9.4-4.2-16.1-15.2-16.1m-204,95.4,19.1-78.8c2.3-9.4-.4-16.6-12.7-16.6s-27.4,7.6-41,15.9l.7,8.1c6.2-3,12.9-5.8,16.1-5.8s4.6,2.3,3,9l-16.8,68c-3.9,15.9.7,25.1,13.6,25.1s26.7-8.5,41.3-25.8l-4-6.2c-8.2,8.5-13.3,12-17.2,12-1.9,0-3-1.9-2.1-4.9m-1.2-129.3a14.5,14.5,0,0,0,14.8,14.8c11.1,0,21.2-10.4,21.2-21.2,0-8.6-6.2-15-14.8-15-11,0-21.2,10.4-21.2,21.4m-156.5,61.1L423.7,1387h31.6l8.5-35.3c17.8-37.6,34.4-53,42.7-53s5,10.1,2,22.1l-12.4,46.6c-2.8,10.6-.7,23,13.8,23,12.5,0,27.2-8.7,41.5-25.8l-3.7-6.2c-8.1,7.8-13.1,12-17,12s-3.3-2.3-1.9-8.8l13.1-51.1c7.2-29.3,1.4-40.4-14.9-40.4-19.2,0-36.7,15.2-57.2,54.6h-.9l9.4-38c2.3-9.7-.9-16.6-12.2-16.6s-25.3,7.2-40.1,15.9l.7,8.1c6.9-3.2,12.9-5.8,16.4-5.8s4.3,2.8,2.7,9m-62.4,68.2,19.1-78.8c2.3-9.4-.5-16.6-12.7-16.6s-27.4,7.6-41,15.9l.7,8.1c6.2-3,12.9-5.8,16.1-5.8s4.6,2.3,3,9l-16.8,68c-3.9,15.9.7,25.1,13.6,25.1s26.7-8.5,41.2-25.8l-3.9-6.2c-8.3,8.5-13.3,12-17.3,12-1.8,0-3-1.9-2-4.9m-1.2-129.3A14.5,14.5,0,0,0,397,1251c11,0,21.2-10.4,21.2-21.2,0-8.6-6.2-15-14.8-15-11,0-21.2,10.4-21.2,21.4m-156.5,61.1L203.6,1387h31.6l8.5-35.3c17.7-37.6,34.3-53,42.6-53s5.1,10.1,2.1,22.1L276,1367.4c-2.8,10.6-.7,23,13.8,23,12.4,0,27.2-8.7,41.5-25.8l-3.7-6.2c-8.1,7.8-13.1,12-17.1,12s-3.2-2.3-1.8-8.8l13.1-51.1c7.2-29.3,1.4-40.4-15-40.4-19.1,0-36.6,15.2-57.1,54.6h-.9l9.4-38c2.3-9.7-.9-16.6-12.2-16.6s-25.4,7.2-40.1,15.9l.7,8.1c6.9-3.2,12.9-5.8,16.3-5.8s4.4,2.8,2.8,9M166,1365.1l28.6-116c1.6-6,4.1-9.4,8.5-11.3,2.6-.9,7.4-1.3,10.4-1.6l2.3-9H149l-2.3,9c3.6.5,7.3,1,9.2,1.9,3.4,1.8,4.6,5,3,11l-28.6,116c-1.6,6-4.2,9.4-8.5,11.3a47.3,47.3,0,0,1-10.2,1.6l-2.5,9h66.8l2.3-9c-3.9-.5-7.6-.9-9.4-1.9s-4.4-5-2.8-11" fill="#522651"/><path d="M2201,943.1a5.9,5.9,0,0,0,2.1,4.9,8.1,8.1,0,0,0,5.5,1.7,11.1,11.1,0,0,0,7.7-2.7,10.4,10.4,0,0,0,3.2-8.1,6.5,6.5,0,0,0-2-5,8.1,8.1,0,0,0-5.4-1.7,11.9,11.9,0,0,0-7.7,2.7c-2.3,1.7-3.4,4.5-3.4,8.2m-123.3,61.5a6.6,6.6,0,0,0,2.1,5.1,7.7,7.7,0,0,0,5.3,1.8,13.8,13.8,0,0,0,8.9-3.3,11.1,11.1,0,0,0,4-8.7,6.9,6.9,0,0,0-2.1-5.5,8.1,8.1,0,0,0-5.5-1.9,12.3,12.3,0,0,0-9,3.7,11.9,11.9,0,0,0-3.7,8.8m30.7-74.9a76.1,76.1,0,0,0-17.1,1.8c-5.2,1.3-11.4,3.1-18.7,5.6-5.2,1.8-9.5,3.2-12.9,4.1a39,39,0,0,1-10.1,1.4c-3.1,0-5.5-.6-7.2-1.9a5.8,5.8,0,0,1-2.5-5,13.5,13.5,0,0,1,1.2-4.6h-5.3a28.4,28.4,0,0,0-2.8,5.8,18.2,18.2,0,0,0-1.2,5.9,9.1,9.1,0,0,0,3.3,7.2c2.1,1.8,5.5,2.7,10.1,2.7a41.1,41.1,0,0,0,10.8-1.4c3.7-.9,9-2.4,15.9-4.6s13.1-4.1,18.4-5.4a66.7,66.7,0,0,1,16-1.9c13,0,22.8,4,29.1,12.2s9.6,19.3,9.6,33.6c0,16.2-2.7,30.2-8.2,42.1s-13.1,21-23,27.4-21.3,9.6-34,9.6a55,55,0,0,1-15-1.9c-4.6-1.2-10.1-2.9-16.6-5.3s-9.4-3.4-13-4.5a45.4,45.4,0,0,0-11-1.4c-5.8,0-10.4,1.5-13.8,4.6s-5.1,7.2-5.1,12.4a25.1,25.1,0,0,0,.3,4.4h5.3v-1.2a8.8,8.8,0,0,1,3.8-7.3,15.3,15.3,0,0,1,9.8-3,34.6,34.6,0,0,1,9.2,1.2c2.9.9,6.7,2.2,11.5,4.1a110.9,110.9,0,0,0,15.7,5.6,65.6,65.6,0,0,0,16.8,2c15.4,0,28.9-3.6,40.5-10.9s20.6-17.7,27-31.4,9.7-30.2,9.7-49.2c0-16.6-3.8-29.6-11.5-38.9s-19.4-13.9-35-13.9m-249.9,17.7a47.1,47.1,0,0,1-3.7,18c-2.4,6.2-6.2,14.2-11.3,24.2-6,12-10.5,22.1-13.7,30.4a73.2,73.2,0,0,0-4.7,25.8q0,28.2,27.9,28.2c10.9,0,20.2-3.2,27.9-9.5a61.4,61.4,0,0,0,17.3-22.6h.6c.5,8.9,3,16.5,7.6,22.7s12.4,9.4,23.3,9.4c12.8,0,22.5-3.4,29.1-10.3s11-16,13.3-27.6,3.6-26.6,4-44.9c.3-14.9.8-25.8,1.6-32.8s2.1-12,4.1-15,5.1-4.5,9.2-4.5a25.5,25.5,0,0,1,8.6,1.8l2.3-1.6a9.2,9.2,0,0,0-2.9-6.7c-1.9-1.8-4.9-2.7-8.9-2.7q-11.1,0-15.9,6.9t-6,17.7c-.8,7.3-1.4,18.9-1.8,35.1s-1.4,31.1-2.7,41.1-4.4,18.3-9.2,24.7-12.2,9.6-22,9.6-15.9-2.9-19.9-8.7-6.2-14-6.2-24.8a189.4,189.4,0,0,1,1.7-20.5c5.5-21.3,9.8-37.2,12.8-47.5s6.5-20.9,10.7-32l-1.6-1.6q-8.9,2.1-13.5,8.7c-3.2,4.5-5.6,10.4-7.3,17.8s-3.8,19.1-6.2,35.3l-2.5,16.1c-4.3,18.6-10,32.8-17.1,42.5s-16.8,14.7-29,14.7-19.4-6.6-19.4-19.6a67.6,67.6,0,0,1,4.4-24,286.6,286.6,0,0,1,13.1-28.4c5.2-10,9.2-18.4,11.9-25.2a55.5,55.5,0,0,0,4-20.6c0-5.4-1.2-9.6-3.8-12.7s-6.2-4.6-10.9-4.6-6,.7-7.9,2.2a8.7,8.7,0,0,0-3.4,5.4l1.6,1.6a25.3,25.3,0,0,1,5.5-.9c6,0,9,3.1,9,9.4m-287.2,72.9,5.1-17.8q5.3-19.1,9-29.7l-1.6-1.6a15.8,15.8,0,0,0-9.3,3.7c-2.1,2-3.9,5.5-5.3,10.6s-3,10.9-4.3,17-3.3,15.1-5.8,26.8l1.6,1.6a16.6,16.6,0,0,0,6.4-3.1q2.6-2.2,4.2-7.5m21.5-90.6c-12.8,0-24.3,2.5-34.6,7.5a65.6,65.6,0,0,0-24.7,20.1c3.1-9.5,6-18.2,8.8-26l-1.6-1.6a14.3,14.3,0,0,0-9.1,5.6c-2.3,3-4.2,7.4-5.9,13.1s-4.2,15.1-7.4,28.3c-.2,1.1-.5,2.8-1.1,5.3h9.2c1.5-5.2,5-11.1,10.3-17.6s12.6-12.2,21.7-17.1,19.5-7.2,31.4-7.2c13.5,0,23.5,3.5,30.1,10.6s10,17.2,10,30.4c0,16.4-3.4,30.9-10.1,43.3s-16.9,22.2-30.7,29.2-31.2,10.5-51.9,10.5a103.8,103.8,0,0,1-19-1.5,47.8,47.8,0,0,1-12.1-3.6l-1.9,1.1a13,13,0,0,0-.4,2.8c0,3.7,2.4,6.5,7.2,8.3s12.9,2.8,24.1,2.8c35.1,0,61.4-8.4,79.1-25.3s26.5-39.8,26.5-69c0-15.2-3.9-27.4-11.8-36.4s-19.9-13.6-36.1-13.6m-275,33.2c-16,0-28.7,3.7-38.1,11.3s-14,18.5-14,32.9c0,11.6,3.4,19.9,10.4,25s16.1,7.8,27.6,7.8c6.6,0,11.1-1,13.5-2.8a10,10,0,0,0,4-6.9l-.9-.5a71,71,0,0,1-14.7,1.6c-10,0-17.6-2-22.9-6.1s-7.8-10.6-7.8-19.7c0-11.5,3.6-20.1,10.8-25.7s17.5-8.4,30.7-8.4a52.4,52.4,0,0,1,14.1,2.1l.9-.7a12.3,12.3,0,0,0,.4-2.8c0-4.7-4.7-7.1-14-7.1m-124,1.6a22.3,22.3,0,0,0-7.8,1.1c-1.7.8-3.3,2.7-4.7,5.8l1.4,2.1a229.4,229.4,0,0,0,25.6,1.1l-.2.7q-8.1,20.3-20.6,63.2l1.4,1.6,2.7-1a34.7,34.7,0,0,0,5.2-2.8,12.7,12.7,0,0,0,4.6-6.1c2.3-6.2,5.3-15.4,9-27.7.9-2.9,2.3-7.3,4.1-13.2s3.5-10.9,4.9-14.9a149.4,149.4,0,0,0,16.1-1.2,23.6,23.6,0,0,0,6.8-1.7c1.4-.7,2.7-2.3,3.8-4.9l-1.2-2.1Zm-104.9,33.9c0-2.8-.8-4.8-2.4-6.1a9.5,9.5,0,0,0-6.1-2,13.4,13.4,0,0,0-9.9,4,13.2,13.2,0,0,0-4.2,9.8,7.5,7.5,0,0,0,2.3,5.9,9.2,9.2,0,0,0,6.2,2,13.7,13.7,0,0,0,9.8-4,12.3,12.3,0,0,0,4.3-9.6m6.9-68.7a78.4,78.4,0,0,0-34.6,7.5,64.5,64.5,0,0,0-24.6,20.1c3-9.5,6-18.2,8.7-26l-1.6-1.6a14.5,14.5,0,0,0-9.1,5.6c-2.2,3-4.2,7.4-5.9,13.1s-4.1,15.1-7.3,28.3c-.2,1.1-.6,2.8-1.2,5.3h9.2c1.6-5.2,5-11.1,10.4-17.6s12.6-12.2,21.7-17.1,19.5-7.2,31.3-7.2c13.5,0,23.6,3.5,30.2,10.6s9.9,17.2,9.9,30.4c0,16.4-3.3,30.9-10,43.3s-16.9,22.2-30.8,29.2-31.1,10.5-51.8,10.5a104.9,104.9,0,0,1-19.1-1.5,47.8,47.8,0,0,1-12.1-3.6l-1.8,1.1a15.1,15.1,0,0,0-.5,2.8c0,3.7,2.5,6.5,7.3,8.3s12.9,2.8,24.1,2.8c35,0,61.4-8.4,79-25.3s26.6-39.8,26.6-69c0-15.2-4-27.4-11.8-36.4s-19.9-13.6-36.2-13.6M975,1029.9a228.2,228.2,0,0,0-25.6-1.1l.3-.7q8.1-20.2,20.5-63.2l-1.4-1.6-2.6,1.1a23.7,23.7,0,0,0-5.2,2.7,12.1,12.1,0,0,0-4.6,6.1c-2.3,6.2-5.3,15.4-9,27.7l-4.2,13.3c-1.8,5.9-3.4,10.8-4.8,14.8-6,.2-11.4.6-16.1,1.2a22.8,22.8,0,0,0-6.8,1.7c-1.5.7-2.8,2.3-3.9,5l1.2,2H964c3.3,0,5.9-.3,7.7-1.1s3.3-2.7,4.7-5.8Zm-238.1-17.5c0-4-1.3-7-4.1-9.2a54.1,54.1,0,0,0-12-6.4,48.8,48.8,0,0,1-10.5-5.5,7.8,7.8,0,0,1-3.3-6.8,10,10,0,0,1,4.8-8.7c3.2-2.2,7.9-3.2,13.8-3.2a24.4,24.4,0,0,1,10.2,2,25.3,25.3,0,0,1,7.6,5.1l1.1-.5a13.2,13.2,0,0,0,2.8-7.3c0-3-1.6-5.1-4.7-6.6a26.7,26.7,0,0,0-11.4-2.2c-10.6,0-19.2,2.5-25.6,7.4s-9.7,11.1-9.7,18.6c0,4.4,1.4,7.6,4.3,9.8s7.2,4.6,13,7.1a43.2,43.2,0,0,1,9.8,4.6,7.1,7.1,0,0,1,3.3,6.2c0,4.2-1.9,7.5-5.8,10s-9.1,3.8-15.6,3.8a21.6,21.6,0,0,1-10.6-2.5,24.9,24.9,0,0,1-7.4-6l-.9.5c-1.8,3.2-2.8,5.9-2.8,8a7.8,7.8,0,0,0,4.4,7.3c2.9,1.6,6.8,2.4,11.5,2.4,11.4,0,20.6-2.6,27.5-7.8s10.3-11.9,10.3-20.1m-69.6-56.2a27.4,27.4,0,0,0-7-18.5c-4.7-5.3-12-8-21.8-8a59.5,59.5,0,0,0-15.1,1.9c-5,1.3-10.7,3.2-17.2,5.5s-10.3,3.4-13.6,4.2a34,34,0,0,1-9.2,1.3c-3.2,0-5.6-.6-7.1-1.7a5.6,5.6,0,0,1-2.3-4.8,8.8,8.8,0,0,1,1.4-5h-5.3a25.7,25.7,0,0,0-3.3,6.2,19.3,19.3,0,0,0-1.3,6.7,8.6,8.6,0,0,0,3.1,6.8c2,1.7,5.4,2.6,10,2.6a57.7,57.7,0,0,0,14-1.7q6.8-1.8,17.1-5.4l6.2-2.1c3.3-1.1,6.6-2,10.2-2.9a47.2,47.2,0,0,1,10.6-1.2c7.2,0,12.4,1.7,15.5,5.3a17.7,17.7,0,0,1,4.8,12.4q0,26.1-33,34.8a12.6,12.6,0,0,0-5.7-7.5,18.4,18.4,0,0,0-10.2-2.6,22.6,22.6,0,0,0-10.3,2.4,22.9,22.9,0,0,0-7.9,6.6,46.8,46.8,0,0,0-6.7-.5c-5.1,0-9,.8-11.9,2.5s-4.2,3.9-4.2,6.5a8,8,0,0,0,3.9,7.1c2.6,1.7,7,2.6,13.4,2.6h.6a13.3,13.3,0,0,0,5.6,8.5,17.6,17.6,0,0,0,10.3,3,22.4,22.4,0,0,0,11.3-2.9,23.3,23.3,0,0,0,8.3-7.9c11.7,4,17.6,12.1,17.6,24.4q0,13.8-7.2,21.3t-21.9,7.5a60.6,60.6,0,0,1-16.1-2A118.2,118.2,0,0,1,577,1056a131.3,131.3,0,0,0-12.5-4.4,37.3,37.3,0,0,0-10.1-1.4c-6,0-10.8,1.7-14.5,5.1a17.3,17.3,0,0,0-5.6,13.4l.3,3.9h5.3v-.2a9.8,9.8,0,0,1,3.8-8.2c2.5-2.1,5.8-3.1,10-3.1a25.6,25.6,0,0,1,7.9,1.1c2.6.8,6.3,2.1,11.2,3.9a168.4,168.4,0,0,0,16.6,5.8,61.3,61.3,0,0,0,16.8,2.1c14,0,24.6-3.3,31.6-9.9s10.6-16,10.6-28.2c0-8.3-2-15.3-6-21.2s-10.2-9.9-18.6-12.2v-.4c14.1-3.1,24.9-8.5,32.4-16.3s11.1-17.6,11.1-29.6m-192.2,8.3a21.3,21.3,0,0,0-7.7,1.1c-1.8.8-3.4,2.7-4.7,5.8l1.3,2.1a230.7,230.7,0,0,0,25.6,1.1l-.2.7q-8.1,20.3-20.5,63.2l1.4,1.6,2.6-1a30.4,30.4,0,0,0,5.2-2.8,12.7,12.7,0,0,0,4.6-6.1c2.3-6.2,5.3-15.4,9-27.7.9-2.9,2.3-7.3,4.1-13.2s3.5-10.9,4.9-14.9a145.6,145.6,0,0,0,16.1-1.2,22.8,22.8,0,0,0,6.8-1.7c1.5-.7,2.7-2.3,3.8-4.9l-1.1-2.1Zm-81.4,94.7a292.8,292.8,0,0,1-38.9-26.3c-13.1-10.3-23.4-19.9-30.9-29,6.9-7.5,16.2-15.2,28-23a311.1,311.1,0,0,1,36.7-21.1,238.3,238.3,0,0,1,33.5-14q-16.7,57.2-28.4,113.4m-80.2-54.6c2.2,4.8,8.7,12.3,19.6,22.6a310.3,310.3,0,0,0,35.7,28.9c13,9,23.7,14.5,32.3,16.5q15.9-76,36-142.7c-7.4,1.1-19,5.2-34.8,12.5A374.9,374.9,0,0,0,354,968.9q-24.6,15.6-39.3,31.1Zm-54.8-10.1c2.4-8.5,5.7-18.5,9.7-30l-1.7-1.6-4.9,2.2q-4.5,1.9-7.5,8.1c-1.4,2.8-3.9,9.9-7.4,21.3H228.5a18.8,18.8,0,0,0-7.9,1.3c-1.8,1-3.3,2.9-4.6,5.8l1.4,2.1c3.1.6,9.3.9,18.7.9h7.8c-3.2,11.5-6.7,22.8-10.4,33.9l1.7,1.6a12.8,12.8,0,0,1,2.7-.9,17.9,17.9,0,0,0,5.2-2.8,13.7,13.7,0,0,0,4.5-6.7l8.1-25.1q12.2-.3,21.6-.9t11.1-7.2l-1.1-2ZM196,963.1a14.3,14.3,0,0,0-6.2,2.9,10.2,10.2,0,0,0-3.3,5.6q-3,10.4-9,33a51.5,51.5,0,0,1-21.9,5.1q-13.8,0-13.8-11.1a50,50,0,0,1,1.9-12.6c1.2-4.8,3.3-11.9,6.2-21.3l-1.6-1.6a14.5,14.5,0,0,0-6.5,2.9,11.4,11.4,0,0,0-3.4,5.4,112.4,112.4,0,0,0-4.3,15.2,65.4,65.4,0,0,0-1.7,14.1c0,5.4,1.6,9.6,4.8,12.7s7.8,4.6,13.8,4.6a54.2,54.2,0,0,0,24.7-6.3q-4.6,16.6-7.8,27l1.3,1.6a13.9,13.9,0,0,0,6.1-2.7,11.9,11.9,0,0,0,3.4-5.3c3.7-10.8,7.6-24.6,11.7-41.3l7.2-26.3Z" fill="#dc6413"/><path d="M1203.9,724.6c9.7,0,15.2,5.6,15.2,13.6,0,9.5-7.4,23.8-55.5,30.5,6.2-23.3,21.2-44.1,40.3-44.1m10.8,86.2-2.3-6.4c-12.4,11.5-23.5,15.4-32.2,15.4-16.6,0-19.9-14.3-19.9-27.9a95.7,95.7,0,0,1,1.7-16.8c53.2-3.7,68.2-22.6,68.2-38.7,0-14.1-11.8-20.1-24-20.1-33.2,0-56.9,44.8-56.9,77.7,0,20.5,9,35.7,27.4,35.7,11.8,0,26.3-6,38-18.9M1052,827l11.5-48c21.7-33.9,38.3-53,50.7-53,5.1,0,7.4,3,7.4,8.3,0,11.8-13.3,26.8-34.8,43.1v1.9l25.1,47.7h7.7l1.8-4.6-24.2-44.8c22.8-16.8,35.5-32.7,35.5-45.6,0-11.1-7.6-15.7-15.7-15.7-13.6,0-29.9,13.4-50.2,47.7h-.5l23.7-91.9c3.7-14.1,1.2-18.5-7.3-18.5s-15.9,4-23.5,10.2v6.4c6.6-4.1,14-7.3,17.9-7.3s4.4,2.5,2.6,10.1l-38.3,154ZM939.1,806.7l14.5-57.2c5.8-22.3.9-33.2-11.5-33.2-15.5,0-31.1,15.2-51.7,49.6h-.9l24.2-93.8c3.7-14.1,1.2-18.5-7.4-18.5s-15.9,4-23.5,10.2v6.4c6.7-4.1,14.1-7.3,18-7.3s4.4,2.5,2.6,10.1L865.1,827h10.6l11.1-45.7c22.5-34.5,41.9-54.4,52-54.4,8.1,0,8.6,7.9,4,25.6l-14.6,57.2c-3.4,13.6-1.3,20,5.1,20s17.8-6.9,28.1-17.7l-1.8-6.5c-7.6,6.7-17.1,12.7-20.5,12.7s-2.1-3.2,0-11.5m-175.7-7.8c0-36.2,27.9-73.8,53.1-73.8,5.3,0,11,1.8,16.8,5.8l-8.8,36.6c-21,32.7-39.6,52.3-50,52.3-6.9,0-11.1-7.3-11.1-20.9m61.6,7.8,22.6-90.8h-3.5l-8.1,4.8a29.3,29.3,0,0,0-15.9-4.4c-33.8,0-67.7,44.1-67.7,83.9,0,19.2,7.8,29.5,19.3,29.5,14.6,0,33.9-19.6,49.6-47.2h.5l-7.6,27.2c-4,13.6-1.4,20,5,20s17.8-6.9,28.1-17.7l-1.8-6.5c-7.6,6.7-17.1,12.7-20.5,12.7s-2.1-3.2,0-11.5m-91.3-90.4c-3.2,0-6.4,2.8-6.4,9.7,0,32.7-13.6,61.1-39.2,88.5l-5.6-95.4H672.4l.5,7.1c0,31.2-12.5,61.6-37.1,88.3l-4.9-81.6c-.7-12.6-2.3-16.6-8.7-16.6s-14.8,3.5-21.9,9.7v6.9c5.5-3.9,13.6-7.1,16.5-7.1s3.7,3.2,4.2,9l6.2,94h4.4c18.9-15.9,35.3-42.2,43.6-68.4l4.3,68.4h4.4c32.3-29.5,55.6-71.7,55.6-102.8,0-6.9-2.6-9.7-5.8-9.7m-130-51.4c0-6-3.2-11.3-9-11.3s-11.5,7-11.5,13.9c0,4.4,3.5,7.6,9,7.6-3.5,10.6-11.3,17.7-20.5,25.3l2.7,4.6c13.9-9.2,29.3-24.2,29.3-40.1M463.1,827l11.5-48c21.7-33.9,38.3-53,50.7-53,5.1,0,7.4,3,7.4,8.3,0,11.8-13.3,26.8-34.8,43.1v1.9L523,827h7.7l1.8-4.6-24.2-44.8c22.8-16.8,35.5-32.7,35.5-45.6,0-11.1-7.6-15.7-15.7-15.7-13.6,0-29.9,13.4-50.2,47.7h-.5l23.7-91.9c3.7-14.1,1.2-18.5-7.3-18.5s-15.9,4-23.5,10.2v6.4c6.6-4.1,14-7.3,17.9-7.3s4.4,2.5,2.6,10.1L452.5,827Zm-51.2-20.3,33.7-134.6c3.5-14.1,1.2-18.5-7.4-18.5s-15.9,4-23.5,10.2v6.4c6.7-4.1,14.1-7.3,18-7.3s4.4,2.5,2.5,10.1L401.1,809.7c-3.4,13.6-1.4,20,5.1,20s17.7-6.9,28.1-17.7l-1.8-6.5c-7.6,6.7-17.1,12.7-20.6,12.7-2,0-2-3.2,0-11.5m-55.7,0,21.9-87.6H367.5l-10.9,45.4c-22.3,34.4-40.5,54.6-51.8,54.6-9,0-8.8-7.8-4.2-25.5l15-58.8c3.5-13.9,1.2-18.5-6.2-18.5s-15.9,4-24.7,10.2v6.4c7.2-4.1,15.2-7.1,18.9-7.1s3.5,2.3,1.6,9.9l-15.4,60.8c-5.8,22.4-.9,33.2,11.5,33.2,14.8,0,31.1-15.4,51.9-50h.7l-8.6,30c-3.9,13.6-1.3,20,5.1,20s17.8-6.9,28.1-17.7l-1.8-6.5c-7.6,6.7-17.1,12.7-20.5,12.7s-2.1-3.2,0-11.5m-188.3,12H144.3l35.5-142.9h24c36.7,0,51.4,19.1,51.4,47.2,0,39.2-27.2,95.7-87.3,95.7m99.3-95.2c0-35.3-21.2-56.3-59-56.3H150.3l-1.3,6.3c11.3.7,14.9.9,17,3.2s1.2,4.8,0,9.7L135.6,807.8c-1.2,4.9-1.6,7.6-5.1,10s-9.4,2.7-18.4,3l-1.6,6.2h56.9c62.2,0,99.8-55.8,99.8-103.5" fill="#522651"/><path d="M1873,442.7a7.6,7.6,0,0,1-6.2-2.6c-1.5-1.8-2.3-4.5-2.3-8.2,0-.8.2-2.5.5-5.3a49.5,49.5,0,0,1,10-14.5c4.2-4.3,8.4-6.5,12.6-6.5s6.6,3.1,6.6,9.3a29.8,29.8,0,0,1-3.1,13.3,30.3,30.3,0,0,1-7.9,10.5,15.5,15.5,0,0,1-10.2,4m28.4-54.3a35.2,35.2,0,0,0-17.8,4.8,48,48,0,0,0-14.3,12.7,208.3,208.3,0,0,1,12.7-32.5l-2-2.1c-9,.3-15.6,2-20.1,5.2s-8,7.9-10.6,14.2a164.5,164.5,0,0,0-7,22.2c-2,7.8-2.9,14-2.9,18.8,0,16.4,9,24.6,27.2,24.6,10.7,0,20.2-2,28.3-6.1a44.9,44.9,0,0,0,19-17,46,46,0,0,0,6.8-25c0-13.2-6.4-19.8-19.3-19.8M1811,371.3a78.3,78.3,0,0,0-27.6,4.7c-8.3,3.2-14.9,7.7-19.8,13.7s-7.4,13.2-7.4,21.5,2.6,14.2,7.9,18.3,13.8,6,25.5,5.9c-1.2,4.7-3.4,11.7-6.5,20.7l2.3,2.1c5.9-.6,10.5-1.5,13.8-2.8a17.1,17.1,0,0,0,7.8-5.4,32.1,32.1,0,0,0,5-10,155.3,155.3,0,0,0,5.3-21.2l-2.1-2.3c-14.3.1-24.8-.6-31.6-2.3s-10.1-4.6-10.1-8.6c0-1.8,1.3-3.6,4-5.5s6.8-3.4,12.3-4.6a97.9,97.9,0,0,1,20.3-1.8,136.5,136.5,0,0,1,15,.9l2.5-1.2c2.2-4.6,3.3-8.3,3.3-11,0-7.4-6.7-11.1-19.9-11.1M1642.8,483.1a95.7,95.7,0,0,1-16.2-1.2,34.9,34.9,0,0,1-10.6-3l-3.2,1.6a41.2,41.2,0,0,0-4.1,16.9c0,11.3,8.3,17,25.1,17,28.4,0,50.5-7.5,66.4-22.7s23.7-36.8,23.7-65.1c0-19.3-4.9-33.7-14.7-43s-24.9-13.9-45.2-13.9c-12.5,0-21.8,2.3-27.9,6.8s-9.5,12.5-10.2,23.8l2.4,2.8a152.9,152.9,0,0,1,27.8-2.5q47.3,0,47.3,34.8c0,16.4-5.5,28.5-16.5,36.2s-25.7,11.5-44.1,11.5m-92.7-40.4a7.6,7.6,0,0,1-6.2-2.6c-1.5-1.8-2.3-4.5-2.3-8.2a41.3,41.3,0,0,1,.5-5.3,47.7,47.7,0,0,1,10-14.5c4.2-4.3,8.4-6.5,12.5-6.5s6.7,3.1,6.7,9.3a29.8,29.8,0,0,1-3.1,13.3,31.6,31.6,0,0,1-7.9,10.5,15.7,15.7,0,0,1-10.2,4m28.4-54.3a35.2,35.2,0,0,0-17.8,4.8,48,48,0,0,0-14.3,12.7,208.3,208.3,0,0,1,12.7-32.5l-2.1-2.1c-8.9.3-15.6,2-20,5.2s-8,7.9-10.6,14.2a180.2,180.2,0,0,0-7.1,22.2c-1.9,7.8-2.8,14-2.8,18.8,0,16.4,9,24.6,27.2,24.6,10.7,0,20.2-2,28.3-6.1a44.9,44.9,0,0,0,19-17,46,46,0,0,0,6.8-25c0-13.2-6.4-19.8-19.3-19.8m-90.4-17.1a78.3,78.3,0,0,0-27.6,4.7c-8.3,3.2-15,7.7-19.9,13.7a32.9,32.9,0,0,0-7.3,21.5c0,8.1,2.6,14.2,7.9,18.3s13.8,6,25.5,5.9c-1.3,4.7-3.4,11.7-6.5,20.7l2.3,2.1c5.9-.6,10.4-1.5,13.7-2.8a17.5,17.5,0,0,0,7.9-5.4,30,30,0,0,0,4.9-10,141.8,141.8,0,0,0,5.3-21.2l-2-2.3c-14.3.1-24.9-.6-31.6-2.3s-10.2-4.6-10.2-8.6c0-1.8,1.4-3.6,4.1-5.5s6.8-3.4,12.3-4.6a97.3,97.3,0,0,1,20.3-1.8,136.5,136.5,0,0,1,15,.9l2.5-1.2c2.2-4.6,3.2-8.3,3.2-11q0-11.1-19.8-11.1m-93.8,15h-48.9l6-14.1-2.3-2.5c-15.3.6-26.2,4.6-32.5,12l-3,4.6h-9.2c-5.7,0-10.4,1-14.2,3s-6.2,5.7-7.5,11.3l2.4,2.5c2.9.8,9.9,1.3,21.2,1.6A203.5,203.5,0,0,0,1300,428l1.4,1.8q23.3.8,36,4.5c8.4,2.6,14.5,6.7,18.1,12.4s5.4,13.5,5.4,23.5a82.7,82.7,0,0,1-3,22,101.5,101.5,0,0,1-7.2,19.2l2.3,2.6c14-1,24-5.6,30-14s9-19,9-31.9c0-16-4.3-28.5-12.9-37.7s-23.1-14.8-43.6-16.9l2.8-8.8c16.6-.3,28.7-.9,36.2-1.7s12.7-2.3,15.7-4.3,5-5.2,6.4-9.7Zm-229.8,96.8a95.3,95.3,0,0,1-16.1-1.2,34,34,0,0,1-10.6-3l-3.3,1.6c-2.7,6.2-4.1,11.8-4.1,16.9,0,11.3,8.4,17,25.1,17,28.4,0,50.6-7.5,66.4-22.7s23.7-36.8,23.7-65.1c0-19.3-4.9-33.7-14.7-43s-24.9-13.9-45.2-13.9c-12.4,0-21.7,2.3-27.9,6.8s-9.5,12.5-10.1,23.8l2.3,2.8a153.2,153.2,0,0,1,27.9-2.5q47.3,0,47.2,34.8c0,16.4-5.5,28.5-16.5,36.2s-25.7,11.5-44.1,11.5M930.6,442.7a7.8,7.8,0,0,1-6.3-2.6c-1.5-1.8-2.3-4.5-2.3-8.2,0-.8.2-2.5.5-5.3a49.5,49.5,0,0,1,10-14.5c4.2-4.3,8.4-6.5,12.6-6.5s6.7,3.1,6.7,9.3a29.9,29.9,0,0,1-3.2,13.3,30.3,30.3,0,0,1-7.9,10.5,15.5,15.5,0,0,1-10.1,4m28.3-54.3a34.6,34.6,0,0,0-17.7,4.8,46.8,46.8,0,0,0-14.3,12.7,198.4,198.4,0,0,1,12.6-32.5l-2-2.1c-8.9.3-15.6,2-20.1,5.2s-8,7.9-10.6,14.2a164.5,164.5,0,0,0-7,22.2c-1.9,7.8-2.9,14-2.9,18.8,0,16.4,9.1,24.6,27.2,24.6,10.8,0,20.2-2,28.3-6.1a45.8,45.8,0,0,0,19.1-17,46.9,46.9,0,0,0,6.8-25c0-13.2-6.5-19.8-19.4-19.8m-189,110.4c-5.5,0-9.5-2.2-12-6.4s-3.7-9.5-3.7-16c0-12.9,3.3-23.5,9.8-31.7s15.6-13.4,27.1-15.6a28.1,28.1,0,0,1,4.3,10,59.5,59.5,0,0,1,1.5,14,76,76,0,0,1-3,20.9,46.6,46.6,0,0,1-9.1,17.6c-4.1,4.8-9.1,7.2-14.9,7.2m41.3-95q-37.8,0-61.1,17.1c-15.5,11.3-23.3,28.4-23.3,51.1,0,13.7,3.7,24.1,11.1,31.3S755.8,514,769.7,514a68.5,68.5,0,0,0,29.5-6.3A50.5,50.5,0,0,0,820.4,490q7.8-11.5,7.8-27a41.8,41.8,0,0,0-5.1-20.7A34.4,34.4,0,0,0,808.4,428c12.3.2,24,.8,35,1.8a261.2,261.2,0,0,1,27.9,4l3.5-1.7a22.3,22.3,0,0,0,.4-5c0-8.6-5.3-14.7-16-18.1s-26.7-5.2-48-5.2m-222.7,1.8a23.5,23.5,0,0,1,5.5-15.4c3.7-4.5,8.2-6.7,13.4-6.7s8.3,3.5,8.3,10.6a33.7,33.7,0,0,1-2.8,13.8,29.4,29.4,0,0,1-7.3,10.6h-2.3c-5.1,0-8.8-1-11.2-3.1s-3.6-5.3-3.6-9.8m99.6,14.6c-1.6,11.3-4.5,20-8.9,25.9S670,455,664.8,455s-9-3.3-9-9.7a40.4,40.4,0,0,1,2.2-11.9,165.6,165.6,0,0,1,8.4-19.7l-1.8-1.8c-16,2.4-30.4,4.3-43.1,5.7a33.3,33.3,0,0,0,13.3-11.2,26,26,0,0,0,4.9-15.5c0-13.1-9.1-19.6-27.2-19.6-10.5,0-19.3,1.8-26.6,5.3a38.2,38.2,0,0,0-16.5,14.3,36.6,36.6,0,0,0-5.6,19.6c0,8.9,3,15.7,8.8,20.3s15.2,6.9,28.1,6.9a214.9,214.9,0,0,0,33-2.8c-2.6,5.5-3.9,10.5-3.9,14.8a16.4,16.4,0,0,0,7,14.1c4.7,3.5,12.2,5.2,22.5,5.2s18.1-1.7,25.4-5.3,12.9-8,16.6-13.5S707,439.4,707,434a14.8,14.8,0,0,0-4.5-11.2q-4.5-4.2-12.3-4.5ZM464,335.3c0,4.2,1.3,7.5,3.8,9.9a13.8,13.8,0,0,0,10.1,3.7,25.3,25.3,0,0,0,17-6.2,20.4,20.4,0,0,0,7.4-16.4c0-4.6-1.3-8.1-4-10.4a15.2,15.2,0,0,0-10.5-3.6,23.5,23.5,0,0,0-17,6.6,21.8,21.8,0,0,0-6.8,16.4m.7,36.9q-2.7,40.2-20.9,57.6c-12.2,11.7-29.9,18.1-53.3,19.2l-3,2a341.8,341.8,0,0,1-21.2,60.4l2.3,2.6a75.2,75.2,0,0,0,15.9-2.2,34.7,34.7,0,0,0,12.7-5.9c3.8-3.1,7.1-7.7,9.9-13.9s5.4-14.8,7.8-25.5q30.3-2.2,46.6-15t20.1-37.8a54.8,54.8,0,0,0,14.8,16.6c5.6,4,11.3,6,17,6a30.6,30.6,0,0,0,13.9-3.3,27.2,27.2,0,0,0,10.7-9.8v-4c-16.3-5-29.2-11.5-38.8-19.4a108.9,108.9,0,0,1-24.8-30.1ZM311.9,442.7a7.6,7.6,0,0,1-6.2-2.6c-1.5-1.8-2.3-4.5-2.3-8.2,0-.8.1-2.5.4-5.3a49.8,49.8,0,0,1,10.1-14.5c4.2-4.3,8.4-6.5,12.5-6.5s6.7,3.1,6.7,9.3a29.8,29.8,0,0,1-3.1,13.3,31.6,31.6,0,0,1-7.9,10.5,15.9,15.9,0,0,1-10.2,4m28.4-54.3a35.2,35.2,0,0,0-17.8,4.8,48,48,0,0,0-14.3,12.7,208.3,208.3,0,0,1,12.7-32.5l-2.1-2.1c-8.9.3-15.6,2-20,5.2s-8,7.9-10.6,14.2a180.2,180.2,0,0,0-7.1,22.2c-1.9,7.8-2.8,14-2.8,18.8,0,16.4,9,24.6,27.2,24.6,10.7,0,20.2-2,28.3-6.1a44.9,44.9,0,0,0,19-17,46,46,0,0,0,6.8-25c0-13.2-6.4-19.8-19.3-19.8M259.1,395c0-7-1.9-12.8-5.7-17.3s-10-7.1-18.5-8l-3.7,2.7c-1.3,18.3-5.1,33-11.1,44s-14.3,19-24.7,24-23.2,8-38.6,8.6l-3,2a243.6,243.6,0,0,1-7.4,25.6h-6.7c-5.8,0-10.6,1-14.3,3s-6.1,5.7-7.3,11.1l2.3,2.8c3.5.6,10,1,19.3,1.3-1.3,3.7-3.7,9.3-7.1,16.6l2.3,2.6a64.5,64.5,0,0,0,15.8-2,34.1,34.1,0,0,0,13-6.1,36.4,36.4,0,0,0,8.5-11.3c17.1-.1,29.3-.5,36.7-1.1s12.7-2,15.9-4,5.6-5.3,7.1-10.1l-2.3-2.8H178.7l2.5-10.1q24.8-1.7,42.3-11.7c11.8-6.6,20.7-15.2,26.6-25.7a67.1,67.1,0,0,0,9-34.1" fill="#dc6413"/><path d="M1782.2,238.6c-1.1,5.3-1.8,9.9-1.1,14.1,1.1,11.5,9.6,17.3,23.9,17.3,17.6,0,33.2-10.2,47.5-23.5l-4.1-6.7c-11.8,6.7-18.2,9.2-26.3,9.2-5.3,0-7.1-3.7-7.1-9a65.6,65.6,0,0,1,2-13.6l15.5-61.5h30.2l3-11.6h-30.5L1844,119h-3.5l-30.9,12-5.7,22.3h-23.1l-3,11.6h23.1Zm-127.7-62.4-13.8,53.7c-6.9,29.2-1.4,40.5,15.2,40.5,18.7,0,35.3-15,55.3-53.9h.7l-7.1,34.3c-1.9,8.8.7,19.6,13.1,19.6s27.9-10.8,40.3-25.8l-3.9-6.2c-6.7,6.9-12.9,11.7-16.3,11.7s-4.2-1.6-2.3-8.3l22.1-88.5H1726l-8.8,36.2c-17.3,37.1-32.7,52.3-41,52.3s-5.1-10.3-1.9-22.1l12.7-48.2c3-10.6,3.5-21.4-11.3-21.4-12.2-.2-29.2,7.9-41.2,15.9l.7,8.1c9-4.4,13.3-5.8,16.1-5.8s4.8,2.6,3.2,7.9m-108.8,62.4c-1.1,5.3-1.8,9.9-1.1,14.1,1.1,11.5,9.7,17.3,24,17.3,17.5,0,33.1-10.2,47.4-23.5l-4.1-6.7c-11.8,6.7-18.2,9.2-26.3,9.2-5.3,0-7.1-3.7-7.1-9a65.6,65.6,0,0,1,2-13.6l15.5-61.5h30.2l3-11.6h-30.4l8.7-34.3h-3.4l-30.9,12-5.8,22.3h-23l-3,11.6h23ZM1418,176.2l-13.8,53.7c-6.9,29.2-1.4,40.5,15.2,40.5,18.7,0,35.3-15,55.3-53.9h.7l-7.1,34.3c-1.9,8.8.7,19.6,13.1,19.6s27.9-10.8,40.4-25.8l-4-6.2c-6.6,6.9-12.9,11.7-16.3,11.7s-4.2-1.6-2.3-8.3l22.1-88.5h-31.8l-8.8,36.2c-17.2,37.1-32.7,52.3-41,52.3s-5.1-10.3-1.8-22.1l12.6-48.2c3-10.6,3.5-21.4-11.3-21.4-12.2-.2-29.2,7.9-41.2,15.9l.7,8.1c9-4.4,13.4-5.8,16.1-5.8s4.9,2.6,3.2,7.9m-62.2,69.3,19.1-78.8c2.3-9.4-.4-16.6-12.6-16.6s-27.5,7.6-41.1,15.9l.7,8.1c6.3-3,12.9-5.8,16.2-5.8s4.6,2.3,3,9l-16.9,68c-3.9,15.9.7,25.1,13.6,25.1s26.8-8.5,41.3-25.8l-3.9-6.2c-8.3,8.5-13.4,12-17.3,12-1.9,0-3-1.9-2.1-4.9m-1.1-129.3a14.4,14.4,0,0,0,14.7,14.8c11.1,0,21.2-10.4,21.2-21.2,0-8.6-6.2-15-14.7-15-11.1,0-21.2,10.4-21.2,21.4m-224.3,61.1L1108.3,267h31.5l9-36.7c17.5-36.6,33.7-51.6,42-51.6,6.7,0,6.2,6,2.1,22.1L1176.3,267h31.1l8.5-35.1c17.8-37.8,34.3-53.2,42.9-53.2s5,10.1,1.8,22.1l-12.2,46.6c-3,10.6-.9,23,13.8,23,12.2,0,27-8.7,41.5-25.8l-3.9-6.2c-8.1,7.8-13.1,12-17.1,12s-3-2.3-1.6-8.8l13.2-51.2c6.9-29.2,1.4-40.3-15.2-40.3-19.4,0-36.9,15.5-57.9,55.8h-.5l4.4-17.5c6.9-27.5,3.2-38.3-13.6-38.3-19.6,0-36.6,15.2-56.9,53.5h-.7l9-36.9c2.3-9.4-.7-16.6-12.5-16.6s-25.1,7.2-39.8,15.9l.7,8.1c6.9-3.2,12.9-5.8,16.3-5.8s4.4,2.8,2.8,9M991.6,285.9c0-9.9,6.3-18.2,12.5-23.1a22.1,22.1,0,0,0,4.6.9l19.6,3.3c14.7,2.5,20.7,6.7,20.7,14.7,0,13.6-14.5,24.7-33.4,24.7-16.4,0-24-9.2-24-20.5m44.3-71.7c-8.5,0-12-7.4-12-17.3,0-16.4,9.9-37.1,22.8-37.1,7.4,0,11.3,7.4,11.3,18.2,0,16.6-8.5,36.2-22.1,36.2m-33.4,104.9c35.9,0,79.9-22.4,79.9-50.3,0-15.7-13.5-24-35.7-27.4l-19.8-3c-9.4-1.4-15-3.5-14.3-8.5,0-2.3,1.4-4.9,4.2-7.9a51.1,51.1,0,0,0,14.9,2.1c33.9,0,60.2-21.4,60.2-45.4a23.2,23.2,0,0,0-4.8-14.3c11-3.7,23.7-10.1,23.7-20,0-6.3-3.9-10.2-11.1-10.2s-11.9,6-12.6,13.4c-.5,4.4-1.4,8.7-4.2,12.4-7.8-6.7-19.6-9.9-30.6-9.9-32.8,0-59.7,19.8-59.7,44.5,0,12,7.8,20.7,18.9,25.6-11.8,5.5-25.2,14.5-25.2,26.3,0,6,3.5,11.3,12,14.5-16.8,5.7-37.1,15.9-37.1,32.5s17.8,25.6,41.3,25.6M865.3,177.3,843.2,267h31.6l8.5-35.3c17.8-37.6,34.3-53,42.6-53s5.1,10.1,2.1,22.1l-12.4,46.6c-2.8,10.6-.7,23,13.8,23,12.4,0,27.2-8.7,41.5-25.8l-3.7-6.2c-8.1,7.8-13.1,12-17.1,12s-3.2-2.3-1.8-8.8l13.1-51.2c7.2-29.2,1.4-40.3-14.9-40.3-19.2,0-36.7,15.2-57.2,54.6h-.9l9.4-38c2.3-9.7-.9-16.6-12.2-16.6s-25.3,7.2-40.1,15.9l.7,8.1c6.9-3.2,12.9-5.8,16.4-5.8s4.3,2.8,2.7,9m-62.4,68.2L822,166.7c2.3-9.4-.5-16.6-12.7-16.6s-27.4,7.6-41,15.9l.7,8.1c6.2-3,12.9-5.8,16.1-5.8s4.6,2.3,3,9l-16.8,68c-3.9,15.9.7,25.1,13.6,25.1s26.7-8.5,41.2-25.8l-3.9-6.2c-8.3,8.5-13.3,12-17.3,12-1.8,0-3-1.9-2-4.9m-1.2-129.3A14.5,14.5,0,0,0,816.5,131c11,0,21.2-10.4,21.2-21.2,0-8.6-6.3-15-14.8-15-11,0-21.2,10.4-21.2,21.4M726.8,244.8l33-136.6c2.3-9.7-1.4-16.2-12.7-16.2s-27.7,7.6-41,15.9l.6,8.1c6-2.8,12.7-5.8,16.2-5.8s4.6,2.8,3.2,9L695.2,245.3c-3.9,15.7.5,25.1,13.2,25.1s26.7-8.3,41.7-25.8l-3.9-6.2c-7,7.1-12.9,11.5-16.9,11.7-2.5.3-3.7-1.3-2.5-5.3m-72.1.7,19.1-78.8c2.3-9.4-.5-16.6-12.7-16.6s-27.4,7.6-41,15.9l.7,8.1c6.2-3,12.9-5.8,16.1-5.8s4.6,2.3,3,9l-16.8,68c-3.9,15.9.7,25.1,13.6,25.1s26.7-8.5,41.2-25.8l-3.9-6.2c-8.3,8.5-13.3,12-17.3,12-1.8,0-3-1.9-2-4.9m-1.2-129.3A14.5,14.5,0,0,0,668.3,131c11,0,21.2-10.4,21.2-21.2,0-8.6-6.3-15-14.8-15-11.1,0-21.2,10.4-21.2,21.4M531.8,238.6c-1.1,5.3-1.8,9.9-1.1,14.1,1.1,11.5,9.6,17.3,23.9,17.3,17.5,0,33.2-10.2,47.5-23.5l-4.1-6.7c-11.8,6.7-18.3,9.2-26.3,9.2-5.3,0-7.2-3.7-7.2-9s1.2-9.7,2.1-13.6l15.5-61.5h30.1l3-11.6H584.8l8.8-34.3h-3.5l-30.9,12-5.7,22.3H530.4l-3,11.6h23.1Zm-94,0c-1.2,5.3-1.9,9.9-1.2,14.1,1.2,11.5,9.7,17.3,24,17.3,17.5,0,33.2-10.2,47.5-23.5l-4.2-6.7c-11.7,6.7-18.2,9.2-26.3,9.2-5.3,0-7.1-3.7-7.1-9s1.2-9.7,2.1-13.6L488,164.9h30.2l3-11.6H490.8l8.7-34.3h-3.4l-30.9,12-5.8,22.3h-23l-3,11.6h23Zm-112.5-8.3c0-26.3,15.2-67.5,36.4-67.5,6.2,0,11.8,4.1,15.9,9.9l-6.9,28.4c-13.6,24.6-28.1,42.8-38.5,42.8-4.6,0-6.9-4.8-6.9-13.6m65.4,14.1,24.5-94.3h-4.9l-15.6,5.1a60.8,60.8,0,0,0-24-5.1c-41,0-77.9,44.3-77.9,86.4,0,25.2,10.1,33,24,33,18.6,0,35.2-20.3,51.1-48.9h.7l-7.8,27.5c-2.8,9.9-1.4,22.3,12.7,22.3,10.6,0,26.9-8.7,41.2-25.8l-4.4-6.2c-6.2,6-12.4,12-17.2,12-1.9,0-3.5-1.6-2.4-6m-239.4-7.9,22.6-90.8,60.3,122.2h20.6L287,137.7c2.6-9.7,7.6-15.2,13.6-18a46.7,46.7,0,0,1,14.1-3.9l2.1-8.6H257.1l-2.1,8.6c5.5.7,10.4,2.3,13.6,4.8s5.3,8.1,3,17.1L252.5,214,197.1,107.2H146.9l-2.1,8.3c14.3,2.1,18.2,11.1,14.3,27l-23.3,94c-2.5,9.7-7.6,15.3-13.6,18a42.3,42.3,0,0,1-13.8,3.9l-2.1,8.6h59.5l2.1-8.6c-5.6-.6-10.4-2.3-13.6-4.8s-5.3-8.1-3-17.1" fill="#522651"/></g></svg>